<?xml version="1.0" encoding="utf-8"?><svg xmlns="http://www.w3.org/2000/svg" xmlns:xlink="http://www.w3.org/1999/xlink"><symbol fill="none" viewBox="0 0 20 20" id="anchor" xmlns="http://www.w3.org/2000/svg"><path d="M2 18L18 2m0 0H5m13 0v13" stroke="#000" stroke-width="3"/></symbol><symbol fill="none" viewBox="0 0 13 8" id="arrow-dw" xmlns="http://www.w3.org/2000/svg"><path fill-rule="evenodd" clip-rule="evenodd" d="M6.5 4.161l4-3.585a.311.311 0 01.407 0l1.505 1.35a.252.252 0 010 .381L6.704 7.424a.311.311 0 01-.408 0L.588 2.307a.252.252 0 010-.382L2.093.576a.311.311 0 01.408 0L6.5 4.161z" fill="#FFBA00"/></symbol><symbol fill="none" viewBox="0 0 8 12" id="arrow-lf" xmlns="http://www.w3.org/2000/svg"><path fill-rule="evenodd" clip-rule="evenodd" d="M3.911 6L.326 2a.311.311 0 010-.407L1.676.088a.252.252 0 01.381 0l5.117 5.708a.311.311 0 010 .408l-5.117 5.708a.252.252 0 01-.382 0L.326 10.407a.311.311 0 010-.408L3.911 6z" fill="#000"/></symbol><symbol fill="none" viewBox="0 0 32 32" id="calculator" xmlns="http://www.w3.org/2000/svg"><path fill-rule="evenodd" clip-rule="evenodd" d="M9.333 2.667a4 4 0 00-4 4v18.666a4 4 0 004 4h13.334a4 4 0 004-4V6.667a4 4 0 00-4-4H9.333zm1.334 4a1.333 1.333 0 100 2.666h10.666a1.333 1.333 0 000-2.666H10.667zm0 8a1.333 1.333 0 100-2.667 1.333 1.333 0 000 2.667zm6.666-1.334a1.333 1.333 0 11-2.666 0 1.333 1.333 0 012.666 0zm5.334 0a1.333 1.333 0 11-2.667 0 1.333 1.333 0 012.667 0zM12 18.667a1.333 1.333 0 11-2.667 0 1.333 1.333 0 012.667 0zm5.333 0a1.333 1.333 0 11-2.667 0 1.333 1.333 0 012.667 0zm5.334 0a1.333 1.333 0 11-2.667 0 1.333 1.333 0 012.667 0zM12 24a1.333 1.333 0 11-2.667 0A1.333 1.333 0 0112 24zm5.333 0a1.333 1.333 0 11-2.666 0 1.333 1.333 0 012.666 0zm5.334 0A1.333 1.333 0 1120 24a1.333 1.333 0 012.667 0z" fill="#212121"/></symbol><symbol fill="none" viewBox="0 0 36 36" id="jeep" xmlns="http://www.w3.org/2000/svg"><g opacity=".8" fill="#212121"><path d="M3.516 23.625v2.25h1.689a4.362 4.362 0 01-.14-1.093c.004-.39.057-.78.158-1.157H3.516zm5.906-.103a1.288 1.288 0 100 2.577 1.288 1.288 0 000-2.577zm-5.907-9.53h-.93c-.581 0-1.038.5-1.038 1.082v4.907a1.031 1.031 0 001.038 1.042h.93v-7.03z"/><path d="M9.422 21.157a3.653 3.653 0 100 7.306 3.653 3.653 0 000-7.306zm0 5.645a1.99 1.99 0 01-1.408-3.4 1.992 1.992 0 111.408 3.4zm22.922-6.622h1.406v-1.487a.948.948 0 00.01-.13h-1.416v1.617zm-3.516 3.342a1.288 1.288 0 100 2.577 1.288 1.288 0 000-2.577zM19.936 7.523H6.89v1.529l13.045.012v-1.54zm-6.316 16.13c.204.736.21 1.512.019 2.25H24.61a4.353 4.353 0 01.018-2.25H13.621zm19.564 1.129c0 .369-.046.736-.139 1.093h1.408v-2.25h-1.426c.1.378.154.767.157 1.157z"/><path fill-rule="evenodd" clip-rule="evenodd" d="M32.262 20.883h1.488v2.039h-.984a4.356 4.356 0 00-7.875.021l-11.531.004a4.354 4.354 0 00-7.876-.025H4.219V11.51a1.776 1.776 0 011.78-1.758l15.082.05a1.764 1.764 0 011.597 1.035l2.343 5.186a.35.35 0 00.284.204l6.886.723a1.757 1.757 0 011.36.91h-1.29a.616.616 0 00-.62.622v1.782a.613.613 0 00.62.619zM5.555 15.878c0 .194.192.364.386.364H10.5V11.18H5.941a.413.413 0 00-.386.385v4.313zm5.644-4.698v5.062h5.09V11.18h-5.09zm9.957.066a.37.37 0 00-.191-.066H17v5.062h5.951a.36.36 0 00.32-.508l-1.987-4.331a.37.37 0 00-.128-.157z"/><path d="M28.828 21.157a3.653 3.653 0 100 7.306 3.653 3.653 0 000-7.306zm0 5.645a1.99 1.99 0 01-1.408-3.4 1.992 1.992 0 111.408 3.4z"/></g></symbol><symbol viewBox="0 0 17 28" id="next" xmlns="http://www.w3.org/2000/svg"><path fill-rule="evenodd" clip-rule="evenodd" d="M8.891 14L.185 4.668a.705.705 0 010-.952L3.461.205a.628.628 0 01.928 0l12.426 13.319a.705.705 0 010 .952L4.389 27.796a.628.628 0 01-.928 0L.185 24.283a.705.705 0 010-.952L8.891 14z" fill="#212121"/></symbol><symbol viewBox="0 0 14 14" id="phone" xmlns="http://www.w3.org/2000/svg"><path d="M12.833 9.87v1.75a1.165 1.165 0 01-1.271 1.167 11.545 11.545 0 01-5.034-1.791 11.375 11.375 0 01-3.5-3.5 11.544 11.544 0 01-1.791-5.058 1.167 1.167 0 011.16-1.271h1.75A1.167 1.167 0 015.314 2.17c.074.56.211 1.11.409 1.64a1.167 1.167 0 01-.263 1.23l-.74.74a9.333 9.333 0 003.5 3.5l.74-.74a1.167 1.167 0 011.23-.263c.53.198 1.08.335 1.64.409a1.166 1.166 0 011.003 1.184z"/></symbol><symbol fill="none" viewBox="0 0 30 30" id="pin" xmlns="http://www.w3.org/2000/svg"><path fill-rule="evenodd" clip-rule="evenodd" d="M15.917 28.668C18.56 26.524 26 19.822 26 12.353 26 6.083 21.075 1 15 1S4 6.083 4 12.353c0 7.47 7.44 14.17 10.083 16.315.545.443 1.29.443 1.834 0zM15 17a5 5 0 100-10 5 5 0 000 10z" fill="#212121"/></symbol><symbol viewBox="0 0 17 28" id="prev" xmlns="http://www.w3.org/2000/svg"><path fill-rule="evenodd" clip-rule="evenodd" d="M8.109 14l8.706 9.332a.705.705 0 010 .952l-3.276 3.511a.628.628 0 01-.928 0L.185 14.476a.705.705 0 010-.952L12.611.204a.628.628 0 01.928 0l3.276 3.512a.705.705 0 010 .952L8.109 14z" fill="#212121"/></symbol><symbol fill="none" viewBox="0 0 30 30" id="steering-wheel" xmlns="http://www.w3.org/2000/svg"><path fill-rule="evenodd" clip-rule="evenodd" d="M15 30c8.284 0 15-6.716 15-15 0-8.284-6.716-15-15-15C6.716 0 0 6.716 0 15c0 8.284 6.716 15 15 15zM3.89 16.867h5.827a5.63 5.63 0 003.416 3.416v5.827a11.293 11.293 0 01-9.243-9.243zm12.977 3.416a5.63 5.63 0 003.416-3.416h5.827a11.294 11.294 0 01-9.243 9.243v-5.827zM4.013 12.51C5.15 7.492 9.643 3.734 15 3.734c5.356 0 9.85 3.758 10.987 8.776 0 0-4.078-1.682-10.987-1.682S4.013 12.51 4.013 12.51zm8.487.99a1.5 1.5 0 000 3h5a1.5 1.5 0 000-3h-5z" fill="#212121"/></symbol></svg>