<svg width="32" height="32" viewBox="0 0 32 32" fill="none" xmlns="http://www.w3.org/2000/svg">
<path d="M5.33325 6.66675C5.33325 4.45761 7.12411 2.66675 9.33325 2.66675H22.6666C24.8757 2.66675 26.6666 4.45761 26.6666 6.66675V25.3334C26.6666 27.5426 24.8757 29.3334 22.6666 29.3334H9.33325C7.12411 29.3334 5.33325 27.5426 5.33325 25.3334V6.66675Z" fill="#FFBA00"/>
<path fill-rule="evenodd" clip-rule="evenodd" d="M9.33325 8.00008C9.33325 7.2637 9.93021 6.66675 10.6666 6.66675H21.3333C22.0696 6.66675 22.6666 7.2637 22.6666 8.00008C22.6666 8.73646 22.0696 9.33341 21.3333 9.33341H10.6666C9.93021 9.33341 9.33325 8.73646 9.33325 8.00008ZM11.9999 13.3334C11.9999 14.0698 11.403 14.6667 10.6666 14.6667C9.93021 14.6667 9.33325 14.0698 9.33325 13.3334C9.33325 12.597 9.93021 12.0001 10.6666 12.0001C11.403 12.0001 11.9999 12.597 11.9999 13.3334ZM15.9999 14.6667C16.7363 14.6667 17.3333 14.0698 17.3333 13.3334C17.3333 12.597 16.7363 12.0001 15.9999 12.0001C15.2635 12.0001 14.6666 12.597 14.6666 13.3334C14.6666 14.0698 15.2635 14.6667 15.9999 14.6667ZM21.3333 14.6667C22.0696 14.6667 22.6666 14.0698 22.6666 13.3334C22.6666 12.597 22.0696 12.0001 21.3333 12.0001C20.5969 12.0001 19.9999 12.597 19.9999 13.3334C19.9999 14.0698 20.5969 14.6667 21.3333 14.6667ZM10.6666 20.0001C11.403 20.0001 11.9999 19.4031 11.9999 18.6667C11.9999 17.9304 11.403 17.3334 10.6666 17.3334C9.93021 17.3334 9.33325 17.9304 9.33325 18.6667C9.33325 19.4031 9.93021 20.0001 10.6666 20.0001ZM15.9999 20.0001C16.7363 20.0001 17.3333 19.4031 17.3333 18.6667C17.3333 17.9304 16.7363 17.3334 15.9999 17.3334C15.2635 17.3334 14.6666 17.9304 14.6666 18.6667C14.6666 19.4031 15.2635 20.0001 15.9999 20.0001ZM21.3333 20.0001C22.0696 20.0001 22.6666 19.4031 22.6666 18.6667C22.6666 17.9304 22.0696 17.3334 21.3333 17.3334C20.5969 17.3334 19.9999 17.9304 19.9999 18.6667C19.9999 19.4031 20.5969 20.0001 21.3333 20.0001ZM10.6666 25.3334C11.403 25.3334 11.9999 24.7365 11.9999 24.0001C11.9999 23.2637 11.403 22.6667 10.6666 22.6667C9.93021 22.6667 9.33325 23.2637 9.33325 24.0001C9.33325 24.7365 9.93021 25.3334 10.6666 25.3334ZM15.9999 25.3334C16.7363 25.3334 17.3333 24.7365 17.3333 24.0001C17.3333 23.2637 16.7363 22.6667 15.9999 22.6667C15.2635 22.6667 14.6666 23.2637 14.6666 24.0001C14.6666 24.7365 15.2635 25.3334 15.9999 25.3334ZM21.3333 25.3334C22.0696 25.3334 22.6666 24.7365 22.6666 24.0001C22.6666 23.2637 22.0696 22.6667 21.3333 22.6667C20.5969 22.6667 19.9999 23.2637 19.9999 24.0001C19.9999 24.7365 20.5969 25.3334 21.3333 25.3334Z" fill="#FFEBB4"/>
</svg>
