<svg width="32" height="32" viewBox="0 0 32 32" fill="none" xmlns="http://www.w3.org/2000/svg">
<path fill-rule="evenodd" clip-rule="evenodd" d="M28.7999 12.8C28.7999 18.1019 24.5019 22.4 19.2 22.4C18.2301 22.4 17.2938 22.2561 16.4113 21.9886L12.8 25.5999H9.59995V28.7999H3.19995V22.4L10.0113 15.5886C9.74378 14.7061 9.59995 13.7698 9.59995 12.8C9.59995 7.49802 13.898 3.19995 19.2 3.19995C24.5019 3.19995 28.7999 7.49802 28.7999 12.8ZM19.2 6.39995C18.3163 6.39995 17.6 7.1163 17.6 7.99995C17.6 8.88361 18.3163 9.59995 19.2 9.59995C20.9673 9.59995 22.4 11.0326 22.4 12.8C22.4 13.6836 23.1163 14.4 24 14.4C24.8836 14.4 25.5999 13.6836 25.5999 12.8C25.5999 9.26533 22.7346 6.39995 19.2 6.39995Z" fill="#FFBA00"/>
</svg>
