<svg width="32" height="32" viewBox="0 0 32 32" fill="none" xmlns="http://www.w3.org/2000/svg">
<path d="M13.8755 4.13603C14.9425 2.72874 17.0582 2.72874 18.1252 4.13603L19.4579 5.89363C19.7491 6.27756 20.2247 6.47457 20.702 6.40894L22.8872 6.10849C24.6368 5.86792 26.1328 7.36389 25.8922 9.11353L25.5918 11.2987C25.5261 11.776 25.7231 12.2516 26.1071 12.5428L27.8647 13.8755C29.272 14.9425 29.272 17.0582 27.8647 18.1252L26.1071 19.4579C25.7231 19.7491 25.5261 20.2247 25.5918 20.702L25.8922 22.8872C26.1328 24.6368 24.6368 26.1328 22.8872 25.8922L20.702 25.5918C20.2247 25.5261 19.7491 25.7231 19.4579 26.1071L18.1252 27.8647C17.0582 29.272 14.9425 29.272 13.8755 27.8647L12.5428 26.1071C12.2516 25.7231 11.776 25.5261 11.2987 25.5918L9.11353 25.8922C7.36389 26.1328 5.86792 24.6368 6.10849 22.8872L6.40894 20.702C6.47457 20.2247 6.27756 19.7491 5.89363 19.4579L4.13603 18.1252C2.72874 17.0582 2.72874 14.9425 4.13603 13.8755L5.89363 12.5428C6.27756 12.2516 6.47457 11.776 6.40894 11.2987L6.10849 9.11353C5.86793 7.36389 7.36389 5.86793 9.11353 6.10849L11.2987 6.40894C11.776 6.47457 12.2516 6.27756 12.5428 5.89363L13.8755 4.13603Z" fill="#FFBA00"/>
<path d="M19.6095 14.2761L14.2761 19.6095C13.7554 20.1302 12.9112 20.1302 12.3905 19.6095C11.8698 19.0888 11.8698 18.2446 12.3905 17.7239L17.7239 12.3905C18.2446 11.8698 19.0888 11.8698 19.6095 12.3905C20.1302 12.9112 20.1302 13.7554 19.6095 14.2761Z" fill="#FFEBB4"/>
<path d="M14.6667 13.3333C14.6667 14.0697 14.0697 14.6667 13.3333 14.6667C12.597 14.6667 12 14.0697 12 13.3333C12 12.597 12.597 12 13.3333 12C14.0697 12 14.6667 12.597 14.6667 13.3333Z" fill="#FFEBB4"/>
<path d="M17.3333 18.6667C17.3333 19.403 17.9303 20 18.6667 20C19.403 20 20 19.403 20 18.6667C20 17.9303 19.403 17.3333 18.6667 17.3333C17.9303 17.3333 17.3333 17.9303 17.3333 18.6667Z" fill="#FFEBB4"/>
</svg>
