<svg width="32" height="32" viewBox="0 0 32 32" fill="none" xmlns="http://www.w3.org/2000/svg">
<circle cx="18" cy="16" r="9" fill="#FFEBB4"/>
<path d="M18.35 14.4346C17.4869 14.4346 16.7847 15.1368 16.7847 15.9999C16.7847 16.863 17.4869 17.5652 18.35 17.5652C19.2131 17.5652 19.9153 16.863 19.9153 15.9999C19.9153 15.1368 19.2131 14.4346 18.35 14.4346Z" fill="#FFBA00"/>
<path d="M19.387 9.6897V12.5124C20.1908 12.7518 20.879 13.2617 21.3453 13.9366L24.03 13.0643C23.117 11.3048 21.4102 10.0209 19.387 9.6897Z" fill="#FFBA00"/>
<path d="M24.6722 15.0359L21.9867 15.9085C21.9874 15.939 21.989 15.9693 21.989 16C21.989 16.831 21.7084 17.5973 21.2378 18.2106L22.8959 20.4928C24.0384 19.337 24.7449 17.7495 24.7449 16C24.7449 15.6723 24.72 15.3504 24.6722 15.0359Z" fill="#FFBA00"/>
<path d="M18.35 2.34985H5.73682C5.16426 2.34985 4.70007 2.81404 4.70007 3.38661C4.70007 3.95917 5.16426 4.42336 5.73682 4.42336H11.126C9.98896 5.13542 8.96377 6.00992 8.08345 7.01461H1.03675C0.464188 7.01468 0 7.47893 0 8.05149C0 8.62405 0.464188 9.08824 1.03675 9.08824H6.58364C5.38751 11.1167 4.70001 13.4794 4.70001 15.9998C4.70001 18.9326 5.62995 21.6522 7.21008 23.8796H4.26845C3.69588 23.8796 3.23169 24.3438 3.23169 24.9164C3.23169 25.489 3.69588 25.9532 4.26845 25.9532H9.01964C9.66608 26.5595 10.3714 27.1037 11.126 27.5762H1.14369C0.571126 27.5762 0.106938 28.0404 0.106938 28.613C0.106938 29.1855 0.571126 29.6497 1.14369 29.6497H18.35C25.8767 29.6497 32 23.5263 32 15.9998C32 8.47318 25.8767 2.34985 18.35 2.34985ZM23.3862 22.8036C23.3671 22.8197 23.3482 22.836 23.3276 22.8508C23.3045 22.8676 23.2808 22.8833 23.2569 22.8979C21.8716 23.8861 20.1775 24.4681 18.35 24.4681C16.5225 24.4681 14.8285 23.8861 13.4432 22.8979C13.4192 22.8833 13.3956 22.8676 13.3725 22.8508C13.352 22.8358 13.333 22.8196 13.3139 22.8036C11.233 21.2592 9.88171 18.7844 9.88171 15.9998C9.88171 11.3304 13.6806 7.53149 18.35 7.53149C23.0195 7.53149 26.8184 11.3304 26.8184 15.9998C26.8184 18.7845 25.4672 21.2592 23.3862 22.8036Z" fill="#FFBA00"/>
<path d="M12.6702 13.0645L15.3549 13.9369C15.8213 13.262 16.5094 12.7521 17.3133 12.5126V9.68994C15.2901 10.0212 13.5833 11.305 12.6702 13.0645Z" fill="#FFBA00"/>
<path d="M19.5611 19.4309C19.182 19.5652 18.7745 19.639 18.3499 19.639C17.9254 19.639 17.5179 19.5652 17.1387 19.4309L15.4802 21.7135C16.3437 22.149 17.3186 22.3947 18.3499 22.3947C19.3812 22.3947 20.3561 22.149 21.2196 21.7135L19.5611 19.4309Z" fill="#FFBA00"/>
<path d="M14.7113 16C14.7113 15.9693 14.7128 15.939 14.7135 15.9085L12.0279 15.0359C11.9802 15.3504 11.9553 15.6723 11.9553 16C11.9553 17.7496 12.6619 19.3371 13.8043 20.4929L15.4625 18.2106C14.9919 17.5974 14.7113 16.831 14.7113 16Z" fill="#FFBA00"/>
</svg>
