<svg width="1296" height="50" viewBox="0 0 1296 50" fill="none" xmlns="http://www.w3.org/2000/svg">
<line x1="8.74228e-08" y1="25" x2="554" y2="25" stroke="white" stroke-width="2"/>
<line x1="1234" y1="25" x2="1296" y2="25" stroke="white" stroke-width="2"/>
<line x1="624" y1="25" x2="854" y2="25" stroke="white" stroke-width="2"/>
<line x1="924" y1="25" x2="1164" y2="25" stroke="white" stroke-width="2"/>
<circle cx="1199" cy="25" r="24" stroke="white" stroke-width="2"/>
<g filter="url(#filter0_dd)">
<path fill-rule="evenodd" clip-rule="evenodd" d="M1210.83 18.4157C1211.06 18.6478 1211.06 19.0242 1210.83 19.2563L1196.55 33.8259C1196.32 34.058 1195.95 34.058 1195.72 33.8259L1187.17 25.1011C1186.94 24.869 1186.94 24.4927 1187.17 24.2605L1189.37 22.0189C1189.6 21.7868 1189.96 21.7868 1190.19 22.0189L1196.14 28.0818L1207.81 16.1741C1208.04 15.942 1208.4 15.942 1208.63 16.1741L1210.83 18.4157Z" fill="#FFBA00"/>
<path fill-rule="evenodd" clip-rule="evenodd" d="M1210.83 18.4157C1211.06 18.6478 1211.06 19.0242 1210.83 19.2563L1196.55 33.8259C1196.32 34.058 1195.95 34.058 1195.72 33.8259L1187.17 25.1011C1186.94 24.869 1186.94 24.4927 1187.17 24.2605L1189.37 22.0189C1189.6 21.7868 1189.96 21.7868 1190.19 22.0189L1196.14 28.0818L1207.81 16.1741C1208.04 15.942 1208.4 15.942 1208.63 16.1741L1210.83 18.4157Z" stroke="#FFC424"/>
</g>
<circle cx="889" cy="25" r="24" stroke="white" stroke-width="2"/>
<g filter="url(#filter1_dd)">
<path fill-rule="evenodd" clip-rule="evenodd" d="M900.829 18.4157C901.057 18.6478 901.057 19.0242 900.829 19.2563L886.547 33.8259C886.32 34.058 885.951 34.058 885.723 33.8259L877.171 25.1011C876.943 24.869 876.943 24.4927 877.171 24.2605L879.368 22.0189C879.596 21.7868 879.964 21.7868 880.192 22.0189L886.135 28.0818L897.808 16.1741C898.036 15.942 898.404 15.942 898.632 16.1741L900.829 18.4157Z" fill="#FFBA00"/>
<path fill-rule="evenodd" clip-rule="evenodd" d="M900.829 18.4157C901.057 18.6478 901.057 19.0242 900.829 19.2563L886.547 33.8259C886.32 34.058 885.951 34.058 885.723 33.8259L877.171 25.1011C876.943 24.869 876.943 24.4927 877.171 24.2605L879.368 22.0189C879.596 21.7868 879.964 21.7868 880.192 22.0189L886.135 28.0818L897.808 16.1741C898.036 15.942 898.404 15.942 898.632 16.1741L900.829 18.4157Z" stroke="#FFC424"/>
</g>
<circle cx="589" cy="25" r="24" stroke="white" stroke-width="2"/>
<g filter="url(#filter2_dd)">
<path fill-rule="evenodd" clip-rule="evenodd" d="M600.829 18.4157C601.057 18.6478 601.057 19.0242 600.829 19.2563L586.547 33.8259C586.32 34.058 585.951 34.058 585.723 33.8259L577.171 25.1011C576.943 24.869 576.943 24.4927 577.171 24.2605L579.368 22.0189C579.596 21.7868 579.964 21.7868 580.192 22.0189L586.135 28.0818L597.808 16.1741C598.036 15.942 598.404 15.942 598.632 16.1741L600.829 18.4157Z" fill="#FFBA00"/>
<path fill-rule="evenodd" clip-rule="evenodd" d="M600.829 18.4157C601.057 18.6478 601.057 19.0242 600.829 19.2563L586.547 33.8259C586.32 34.058 585.951 34.058 585.723 33.8259L577.171 25.1011C576.943 24.869 576.943 24.4927 577.171 24.2605L579.368 22.0189C579.596 21.7868 579.964 21.7868 580.192 22.0189L586.135 28.0818L597.808 16.1741C598.036 15.942 598.404 15.942 598.632 16.1741L600.829 18.4157Z" stroke="#FFC424"/>
</g>
<defs>
<filter id="filter0_dd" x="1176.5" y="5.5" width="45" height="39" filterUnits="userSpaceOnUse" color-interpolation-filters="sRGB">
<feFlood flood-opacity="0" result="BackgroundImageFix"/>
<feColorMatrix in="SourceAlpha" type="matrix" values="0 0 0 0 0 0 0 0 0 0 0 0 0 0 0 0 0 0 127 0" result="hardAlpha"/>
<feOffset/>
<feGaussianBlur stdDeviation="5"/>
<feComposite in2="hardAlpha" operator="out"/>
<feColorMatrix type="matrix" values="0 0 0 0 1 0 0 0 0 0.729412 0 0 0 0 0 0 0 0 0.3 0"/>
<feBlend mode="normal" in2="BackgroundImageFix" result="effect1_dropShadow"/>
<feColorMatrix in="SourceAlpha" type="matrix" values="0 0 0 0 0 0 0 0 0 0 0 0 0 0 0 0 0 0 127 0" result="hardAlpha"/>
<feOffset/>
<feGaussianBlur stdDeviation="5"/>
<feComposite in2="hardAlpha" operator="out"/>
<feColorMatrix type="matrix" values="0 0 0 0 1 0 0 0 0 0.839902 0 0 0 0 0.408333 0 0 0 0.5 0"/>
<feBlend mode="normal" in2="effect1_dropShadow" result="effect2_dropShadow"/>
<feBlend mode="normal" in="SourceGraphic" in2="effect2_dropShadow" result="shape"/>
</filter>
<filter id="filter1_dd" x="866.5" y="5.5" width="45" height="39" filterUnits="userSpaceOnUse" color-interpolation-filters="sRGB">
<feFlood flood-opacity="0" result="BackgroundImageFix"/>
<feColorMatrix in="SourceAlpha" type="matrix" values="0 0 0 0 0 0 0 0 0 0 0 0 0 0 0 0 0 0 127 0" result="hardAlpha"/>
<feOffset/>
<feGaussianBlur stdDeviation="5"/>
<feComposite in2="hardAlpha" operator="out"/>
<feColorMatrix type="matrix" values="0 0 0 0 1 0 0 0 0 0.729412 0 0 0 0 0 0 0 0 0.3 0"/>
<feBlend mode="normal" in2="BackgroundImageFix" result="effect1_dropShadow"/>
<feColorMatrix in="SourceAlpha" type="matrix" values="0 0 0 0 0 0 0 0 0 0 0 0 0 0 0 0 0 0 127 0" result="hardAlpha"/>
<feOffset/>
<feGaussianBlur stdDeviation="5"/>
<feComposite in2="hardAlpha" operator="out"/>
<feColorMatrix type="matrix" values="0 0 0 0 1 0 0 0 0 0.839902 0 0 0 0 0.408333 0 0 0 0.5 0"/>
<feBlend mode="normal" in2="effect1_dropShadow" result="effect2_dropShadow"/>
<feBlend mode="normal" in="SourceGraphic" in2="effect2_dropShadow" result="shape"/>
</filter>
<filter id="filter2_dd" x="566.5" y="5.5" width="45" height="39" filterUnits="userSpaceOnUse" color-interpolation-filters="sRGB">
<feFlood flood-opacity="0" result="BackgroundImageFix"/>
<feColorMatrix in="SourceAlpha" type="matrix" values="0 0 0 0 0 0 0 0 0 0 0 0 0 0 0 0 0 0 127 0" result="hardAlpha"/>
<feOffset/>
<feGaussianBlur stdDeviation="5"/>
<feComposite in2="hardAlpha" operator="out"/>
<feColorMatrix type="matrix" values="0 0 0 0 1 0 0 0 0 0.729412 0 0 0 0 0 0 0 0 0.3 0"/>
<feBlend mode="normal" in2="BackgroundImageFix" result="effect1_dropShadow"/>
<feColorMatrix in="SourceAlpha" type="matrix" values="0 0 0 0 0 0 0 0 0 0 0 0 0 0 0 0 0 0 127 0" result="hardAlpha"/>
<feOffset/>
<feGaussianBlur stdDeviation="5"/>
<feComposite in2="hardAlpha" operator="out"/>
<feColorMatrix type="matrix" values="0 0 0 0 1 0 0 0 0 0.839902 0 0 0 0 0.408333 0 0 0 0.5 0"/>
<feBlend mode="normal" in2="effect1_dropShadow" result="effect2_dropShadow"/>
<feBlend mode="normal" in="SourceGraphic" in2="effect2_dropShadow" result="shape"/>
</filter>
</defs>
</svg>
