<svg width="42" height="40" viewBox="0 0 42 40" fill="none" xmlns="http://www.w3.org/2000/svg">
<circle cx="21" cy="20" r="19" stroke="white" stroke-width="2"/>
<g filter="url(#filter0_dd)">
<path fill-rule="evenodd" clip-rule="evenodd" d="M30.4635 14.7324C30.6455 14.9181 30.6455 15.2191 30.4635 15.4048L19.0378 27.0605C18.8558 27.2462 18.5607 27.2462 18.3786 27.0605L11.5366 20.0807C11.3545 19.895 11.3545 19.5939 11.5366 19.4082L13.2944 17.615C13.4765 17.4293 13.7716 17.4293 13.9536 17.615L18.7082 22.4653L28.0464 12.9391C28.2284 12.7534 28.5236 12.7534 28.7056 12.9391L30.4635 14.7324Z" fill="#FFBA00"/>
<path fill-rule="evenodd" clip-rule="evenodd" d="M30.4635 14.7324C30.6455 14.9181 30.6455 15.2191 30.4635 15.4048L19.0378 27.0605C18.8558 27.2462 18.5607 27.2462 18.3786 27.0605L11.5366 20.0807C11.3545 19.895 11.3545 19.5939 11.5366 19.4082L13.2944 17.615C13.4765 17.4293 13.7716 17.4293 13.9536 17.615L18.7082 22.4653L28.0464 12.9391C28.2284 12.7534 28.5236 12.7534 28.7056 12.9391L30.4635 14.7324Z" stroke="#FFC424"/>
</g>
<defs>
<filter id="filter0_dd" x="0.900024" y="2.2998" width="40.2" height="35.4" filterUnits="userSpaceOnUse" color-interpolation-filters="sRGB">
<feFlood flood-opacity="0" result="BackgroundImageFix"/>
<feColorMatrix in="SourceAlpha" type="matrix" values="0 0 0 0 0 0 0 0 0 0 0 0 0 0 0 0 0 0 127 0" result="hardAlpha"/>
<feOffset/>
<feGaussianBlur stdDeviation="5"/>
<feComposite in2="hardAlpha" operator="out"/>
<feColorMatrix type="matrix" values="0 0 0 0 1 0 0 0 0 0.729412 0 0 0 0 0 0 0 0 0.3 0"/>
<feBlend mode="normal" in2="BackgroundImageFix" result="effect1_dropShadow"/>
<feColorMatrix in="SourceAlpha" type="matrix" values="0 0 0 0 0 0 0 0 0 0 0 0 0 0 0 0 0 0 127 0" result="hardAlpha"/>
<feOffset/>
<feGaussianBlur stdDeviation="5"/>
<feComposite in2="hardAlpha" operator="out"/>
<feColorMatrix type="matrix" values="0 0 0 0 1 0 0 0 0 0.839902 0 0 0 0 0.408333 0 0 0 0.5 0"/>
<feBlend mode="normal" in2="effect1_dropShadow" result="effect2_dropShadow"/>
<feBlend mode="normal" in="SourceGraphic" in2="effect2_dropShadow" result="shape"/>
</filter>
</defs>
</svg>
