<svg width="115" height="52" viewBox="0 0 115 52" fill="none" xmlns="http://www.w3.org/2000/svg">
<path d="M104.492 40.2998C102.977 40.2998 101.742 41.5276 101.742 43.0298C101.742 44.5372 102.977 45.7598 104.492 45.7598C106.002 45.7598 107.233 44.5372 107.233 43.0298C107.233 41.5276 106.002 40.2998 104.492 40.2998ZM104.492 40.9869C105.619 40.9869 106.529 41.9083 106.529 43.0298C106.529 44.1513 105.619 45.0634 104.492 45.0634C103.36 45.0634 102.446 44.1513 102.446 43.0298C102.446 41.9083 103.36 40.9869 104.492 40.9869Z" fill="#FEFEFE"/>
<path d="M97.284 16.6675C94.6781 16.6675 92.5445 17.7855 91.1175 19.8896L91.0706 19.9639H90.7139V17.3268H83.9186V47.3846H91.0706V37.3003H91.4178L91.4742 37.3653C92.9839 39.3872 95.136 40.4203 97.8659 40.4203C104.412 40.4203 107.346 34.7045 107.346 29.0453C107.346 23.3348 104.703 16.6675 97.284 16.6675ZM95.5664 22.0346C98.9736 22.0346 100.194 25.2723 100.194 28.3025C100.194 31.5693 98.9629 35.0532 95.5194 35.0532C92.35 35.0532 90.8078 32.8452 90.8078 28.3025C90.8078 23.6774 93.2656 22.0346 95.5664 22.0346Z" fill="#FEFEFE"/>
<path d="M21.295 29.4915C21.295 32.4239 20.3281 33.7409 18.1721 33.7409C16.0368 33.7409 14.8217 32.5114 14.8217 30.3661C14.8217 30.3661 14.8217 27.9429 14.8217 27.6394C14.496 27.6394 7.76941 27.6394 7.44885 27.6394C7.44885 27.9017 7.44885 28.8278 7.44885 28.8278C7.44885 36.7351 10.8975 40.4187 18.3014 40.4187C25.6018 40.4187 29.1487 37.0129 29.1487 30.0111C29.1487 30.0111 29.1487 9.10833 29.1487 8.77393C28.8281 8.77393 21.6207 8.77393 21.295 8.77393C21.295 9.10833 21.295 29.4915 21.295 29.4915Z" fill="#FEFEFE"/>
<path d="M43.7476 16.6675C36.9176 16.6675 31.5648 21.8577 31.5648 28.4789C31.5648 35.846 36.2955 40.4203 43.9165 40.4203C49.6349 40.4203 53.7658 37.7265 55.0481 33.2146H48.3748C47.6664 34.7529 46.0165 35.7125 44.0104 35.7125C40.841 35.7125 38.8564 33.7172 38.7168 30.3732V30.1968H55.5268C55.5371 29.9447 55.5455 29.6957 55.5455 29.4539C55.5455 25.5697 54.3621 22.2193 52.1854 19.9453C50.1225 17.8 47.2065 16.6675 43.7476 16.6675ZM43.7476 21.3753C46.2397 21.3753 48.2258 23.4381 48.3654 26.1853L48.3748 26.371H38.6886L38.7168 26.1668C39.1924 23.2086 41.121 21.3753 43.7475 21.3753H43.7476Z" fill="#FEFEFE"/>
<path d="M69.8306 16.6675C63.0006 16.6675 57.6478 21.8577 57.6478 28.4789C57.6478 35.846 62.3785 40.4203 69.9995 40.4203C75.7179 40.4203 79.8488 37.7265 81.1311 33.2146H74.4578C73.7495 34.7529 72.0995 35.7125 70.0934 35.7125C66.924 35.7125 64.9394 33.7172 64.7998 30.3732V30.1968H81.6098C81.6201 29.9447 81.6285 29.6957 81.6285 29.4539C81.6285 25.5697 80.4451 22.2193 78.2684 19.9453C76.2055 17.8 73.2895 16.6675 69.8306 16.6675ZM69.8306 21.3753C72.3227 21.3753 74.3088 23.4381 74.4484 26.1853L74.4578 26.371H64.7716L64.7998 26.1668C65.2754 23.2086 67.204 21.3753 69.8306 21.3753H69.8306Z" fill="#FEFEFE"/>
<path d="M103.385 41.6187V44.4229H104.051V43.3087H104.52L104.952 44.4229H105.694L105.159 43.1879C105.236 43.1519 105.297 43.1208 105.328 43.0951C105.534 42.9665 105.656 42.7219 105.656 42.4544C105.656 42.2074 105.546 41.9536 105.365 41.8044C105.184 41.6706 104.991 41.6187 104.624 41.6187H103.385ZM104.051 42.1108H104.436C104.834 42.1108 104.98 42.2116 104.98 42.4637C104.98 42.726 104.822 42.8351 104.455 42.8351H104.051V42.1108Z" fill="#FEFEFE"/>
</svg>
