<svg width="32" height="32" viewBox="0 0 32 32" fill="none" xmlns="http://www.w3.org/2000/svg">
<circle cx="16" cy="16" r="16" fill="#FFBA00"/>
<path d="M23.0589 19.4732V21.5909C23.0597 21.7875 23.0194 21.9821 22.9406 22.1622C22.8619 22.3423 22.7464 22.504 22.6015 22.6369C22.4567 22.7698 22.2856 22.871 22.0994 22.934C21.9132 22.997 21.7158 23.0203 21.5201 23.0027C19.3479 22.7666 17.2615 22.0244 15.4283 20.8356C13.7228 19.7518 12.2768 18.3058 11.193 16.6003C10 14.7588 9.25763 12.6622 9.02593 10.4803C9.00829 10.2851 9.03149 10.0884 9.09405 9.90262C9.15661 9.71688 9.25716 9.5462 9.3893 9.40144C9.52143 9.25669 9.68226 9.14103 9.86155 9.06184C10.0408 8.98265 10.2346 8.94166 10.4306 8.94147H12.5483C12.8909 8.9381 13.223 9.05941 13.4827 9.28279C13.7424 9.50617 13.9121 9.81638 13.96 10.1556C14.0494 10.8333 14.2152 11.4987 14.4542 12.1391C14.5491 12.3918 14.5697 12.6664 14.5134 12.9303C14.4571 13.1943 14.3263 13.4366 14.1365 13.6285L13.24 14.525C14.2449 16.2922 15.7081 17.7554 17.4753 18.7603L18.3718 17.8638C18.5637 17.674 18.806 17.5433 19.07 17.487C19.334 17.4307 19.6086 17.4512 19.8612 17.5462C20.5017 17.7852 21.1671 17.9509 21.8448 18.0403C22.1876 18.0887 22.5008 18.2614 22.7247 18.5256C22.9485 18.7898 23.0675 19.1271 23.0589 19.4732Z" fill="black"/>
</svg>
